<svg xmlns="http://www.w3.org/2000/svg" width="69" height="73" viewBox="0 0 69 73" fill="none"><rect width="69" height="73" fill="#000"/><path d="M38.5 54.765V63H10V56.475l8.34-16.74H10V31.5H31.155v6.525l-8.4 16.74H38.5z" fill="#fff"/><path d="M41.7986 38.025H34.5V31.5L59 31.475V38L52.4186 38.025V63h-10.62V38.025z" fill="#fff"/><path d="M15.94 21.61C14.23 21.61 12.805 21.07 11.665 19.99 10.555 18.88 10 17.47 10 15.76s.555-3.09 1.665-4.14C12.805 10.54 14.23 10 15.94 10S19.06 10.54 20.17 11.62c1.14 1.05 1.71 2.43 1.71 4.14s-.57 3.12-1.71 4.23c-1.11 1.08-2.52 1.62-4.23 1.62z" fill="#ffd600"/><path fill-rule="evenodd" clip-rule="evenodd" d="M17.2427 13H13v4.2427L17.2427 13zm-2.364 6.1213h4.2426V14.8787l-4.2426 4.2426z" fill="#000"/></svg>